<svg id="Layer_1" data-name="Layer 1" xmlns="http://www.w3.org/2000/svg" viewBox="0 0 694.71 586.14"><defs><style>.cls-1{fill:#fff;}.cls-1,.cls-14,.cls-6{stroke:#231f20;stroke-miterlimit:10;}.cls-2{font-size:12px;}.cls-16,.cls-17,.cls-19,.cls-2,.cls-6{fill:#231f20;}.cls-16,.cls-17,.cls-19,.cls-2{font-family:MyriadPro-Regular, Myriad Pro;}.cls-3{letter-spacing:-0.01em;}.cls-4{letter-spacing:0em;}.cls-5{letter-spacing:-0.02em;}.cls-6{stroke-width:0.5px;}.cls-7{letter-spacing:-0.01em;}.cls-8{letter-spacing:0em;}.cls-9{letter-spacing:0em;}.cls-10{letter-spacing:-0.01em;}.cls-11{letter-spacing:0.02em;}.cls-12{letter-spacing:0em;}.cls-13{letter-spacing:-0.01em;}.cls-14{fill:none;}.cls-15{letter-spacing:0em;}.cls-16{font-size:10.68px;}.cls-17{font-size:9.74px;letter-spacing:-0.01em;}.cls-18{letter-spacing:0em;}.cls-19{font-size:10.63px;}.cls-20{letter-spacing:-0.01em;}.cls-21{letter-spacing:-0.01em;}.cls-22{letter-spacing:-0.01em;}</style></defs><title>Untitled-2</title><g id="entity"><rect class="cls-1" x="141.59" y="315.25" width="85.71" height="25.21"/><text class="cls-2" transform="translate(168.31 331.06)"><tspan class="cls-3">v</tspan><tspan class="cls-4" x="5.65" y="0">e_</tspan><tspan class="cls-5" x="17.66" y="0">x</tspan><tspan x="23.04" y="0">e</tspan></text></g><g id="attribute"><ellipse class="cls-1" cx="53.56" cy="200.91" rx="49.58" ry="17.65"/><text class="cls-2" transform="translate(32.59 203.96)">ma_<tspan class="cls-3" x="21.79" y="0">v</tspan><tspan x="27.44" y="0">e</tspan></text><line class="cls-6" x1="30.59" y1="206.96" x2="69.51" y2="206.96"/></g><g id="attribute-2" data-name="attribute"><ellipse class="cls-1" cx="52" cy="446.83" rx="49.58" ry="17.65"/><text class="cls-2" transform="translate(26.03 450.87)">cho_ngoi</text></g><g id="attribute-3" data-name="attribute"><ellipse class="cls-1" cx="52.32" cy="247.19" rx="49.58" ry="17.65"/><text class="cls-2" transform="translate(33.34 250.19)"><tspan class="cls-7">t</tspan><tspan x="3.9" y="0">en_</tspan><tspan class="cls-3" x="22.57" y="0">v</tspan><tspan class="cls-4" x="28.22" y="0">e</tspan></text></g><g id="attribute-4" data-name="attribute"><ellipse class="cls-1" cx="51" cy="488.04" rx="49.58" ry="17.65"/><text class="cls-2" transform="translate(11.03 492.09)">diem_xu<tspan class="cls-8" x="43.76" y="0">a</tspan><tspan class="cls-4" x="49.5" y="0">t_ph</tspan><tspan class="cls-9" x="72.96" y="0">a</tspan><tspan x="78.7" y="0">t</tspan></text></g><g id="attribute-5" data-name="attribute"><ellipse class="cls-1" cx="51.92" cy="528.95" rx="49.58" ry="17.65"/><text class="cls-2" transform="translate(25.95 539.99)">diem_den</text><g id="attribute-6" data-name="attribute"><ellipse class="cls-1" cx="50.08" cy="567.99" rx="49.58" ry="17.65"/><text class="cls-2" transform="translate(22.1 572.04)">ma_tai_<tspan class="cls-5" x="40.36" y="0">x</tspan><tspan x="45.73" y="0">e</tspan></text></g></g><g id="attribute-7" data-name="attribute"><ellipse class="cls-1" cx="52.32" cy="288.32" rx="49.58" ry="17.65"/><text class="cls-2" transform="translate(10.34 292.36)">ng<tspan class="cls-10" x="13.37" y="0">a</tspan><tspan x="19.06" y="0">y_</tspan><tspan class="cls-11" x="30.71" y="0">k</tspan><tspan class="cls-4" x="36.54" y="0">hoi_hanh</tspan></text></g><g id="attribute-8" data-name="attribute"><ellipse class="cls-1" cx="52" cy="327.86" rx="49.58" ry="17.65"/><text class="cls-2" transform="translate(15.03 331.9)"><tspan class="cls-7">g</tspan><tspan x="6.64" y="0">io_</tspan><tspan class="cls-11" x="22.03" y="0">k</tspan><tspan class="cls-12" x="27.86" y="0">hoi_hanh</tspan></text></g><g id="attribute-9" data-name="attribute"><ellipse class="cls-1" cx="54.23" cy="366.49" rx="49.58" ry="17.65"/><text class="cls-2" transform="translate(33.26 370.54)"><tspan class="cls-7">g</tspan><tspan x="6.64" y="0">ia_</tspan><tspan class="cls-3" x="21.23" y="0">v</tspan><tspan x="26.88" y="0">e</tspan></text></g><g id="attribute-10" data-name="attribute"><ellipse class="cls-1" cx="52.32" cy="405.67" rx="49.58" ry="17.65"/><text class="cls-2" transform="translate(25.34 409.71)">t<tspan class="cls-13" x="3.97" y="0">r</tspan><tspan x="7.84" y="0">ang_thai</tspan></text></g><line class="cls-14" x1="119.4" y1="201.85" x2="110.3" y2="571.17"/><line class="cls-14" x1="103.84" y1="201.85" x2="119.4" y2="201.85"/><line class="cls-14" x1="102.6" y1="246.32" x2="118.55" y2="246.32"/><line class="cls-14" x1="102.6" y1="287.45" x2="115.5" y2="287.45"/><line class="cls-14" x1="102.28" y1="326.99" x2="115.5" y2="326.99"/><line class="cls-14" x1="104.51" y1="365.63" x2="115.5" y2="365.63"/><line class="cls-14" x1="102.6" y1="404.8" x2="112.68" y2="404.8"/><line class="cls-14" x1="102.28" y1="445.96" x2="111.62" y2="445.96"/><line class="cls-14" x1="101.28" y1="487.18" x2="112.68" y2="487.18"/><line class="cls-14" x1="102.2" y1="528.09" x2="110" y2="528.09"/><line class="cls-14" x1="99.05" y1="571.17" x2="110.3" y2="571.17"/><line class="cls-14" x1="115.5" y1="326.99" x2="141.59" y2="326.99"/><g id="entity-2" data-name="entity"><rect class="cls-1" x="420.86" y="464.47" width="85.71" height="25.21"/><text class="cls-2" transform="translate(438.58 480.28)">lich_t<tspan class="cls-15" x="27.65" y="0">r</tspan><tspan x="31.62" y="0">inh</tspan></text></g><g id="attribute-11" data-name="attribute"><ellipse class="cls-1" cx="314.26" cy="551.09" rx="49.58" ry="17.65"/><text class="cls-2" transform="translate(280.28 554.13)">ma_lich_t<tspan class="cls-15" x="49.44" y="0">r</tspan><tspan class="cls-12" x="53.41" y="0">inh</tspan></text><line class="cls-6" x1="277.72" y1="557.89" x2="344.46" y2="557.89"/></g><g id="attribute-12" data-name="attribute"><ellipse class="cls-1" cx="417.05" cy="551.09" rx="49.58" ry="17.65"/><text class="cls-2" transform="translate(391.07 555.13)">xu<tspan class="cls-8" x="12.17" y="0">a</tspan><tspan class="cls-4" x="17.9" y="0">t_ph</tspan><tspan class="cls-9" x="41.36" y="0">a</tspan><tspan x="47.1" y="0">t</tspan></text></g><g id="attribute-13" data-name="attribute"><ellipse class="cls-1" cx="518.07" cy="550.94" rx="49.58" ry="17.65"/><text class="cls-2" transform="translate(480.09 553.94)">so_dien_thoai</text></g><g id="attribute-14" data-name="attribute"><ellipse class="cls-1" cx="621.04" cy="550.94" rx="49.58" ry="17.65"/><text class="cls-2" transform="translate(598.16 554.98)">t<tspan class="cls-13" x="3.97" y="0">r</tspan><tspan x="7.84" y="0">ang_thai</tspan></text></g><line class="cls-14" x1="313.48" y1="513.91" x2="619.75" y2="517.04"/><line class="cls-14" x1="313.83" y1="530.76" x2="313.48" y2="513.91"/><line class="cls-14" x1="416.34" y1="531.23" x2="416.01" y2="515.29"/><line class="cls-14" x1="518.07" y1="533.29" x2="517.35" y2="514.84"/><line class="cls-14" x1="620.09" y1="533.29" x2="619.75" y2="517.04"/><line class="cls-14" x1="466.89" y1="515.65" x2="466.34" y2="489.57"/><g id="entity-3" data-name="entity"><rect class="cls-1" x="400.39" y="209.35" width="85.71" height="25.21"/><text class="cls-2" transform="translate(427.12 225.16)"><tspan class="cls-5">x</tspan><tspan x="5.38" y="0">e</tspan></text></g><g id="attribute-15" data-name="attribute"><ellipse class="cls-1" cx="381.32" cy="18.15" rx="49.58" ry="17.65"/><text class="cls-2" transform="translate(360.34 21.19)">ma_<tspan class="cls-5" x="21.79" y="0">x</tspan><tspan x="27.17" y="0">e</tspan></text><line class="cls-6" x1="358.34" y1="24.19" x2="397.27" y2="24.19"/></g><g id="attribute-16" data-name="attribute"><ellipse class="cls-1" cx="381.32" cy="58.18" rx="49.58" ry="17.65"/><text class="cls-2" transform="translate(361.34 62.22)">bien_so</text></g><g id="attribute-17" data-name="attribute"><ellipse class="cls-1" cx="380.07" cy="102.65" rx="49.58" ry="17.65"/><text class="cls-2" transform="translate(349.1 105.65)">tai_<tspan class="cls-5" x="18.56" y="0">x</tspan><tspan x="23.94" y="0">e_chinh</tspan></text></g><g id="attribute-18" data-name="attribute"><ellipse class="cls-1" cx="380.07" cy="143.78" rx="49.58" ry="17.65"/><text class="cls-2" transform="translate(353.1 147.82)">tai_<tspan class="cls-5" x="18.56" y="0">x</tspan><tspan x="23.94" y="0">e_phu</tspan></text></g><g id="attribute-19" data-name="attribute"><ellipse class="cls-1" cx="381.32" cy="185.51" rx="49.58" ry="17.65"/><text class="cls-2" transform="translate(344.34 189.55)">t<tspan class="cls-13" x="3.97" y="0">r</tspan><tspan x="7.84" y="0">ang_thai</tspan></text></g><line class="cls-14" x1="448.44" y1="17.28" x2="443.57" y2="209.35"/><line class="cls-14" x1="431.59" y1="17.28" x2="448.44" y2="17.28"/><line class="cls-14" x1="431.59" y1="57.32" x2="447.16" y2="57.32"/><line class="cls-14" x1="430.35" y1="101.79" x2="446.3" y2="101.79"/><line class="cls-14" x1="430.35" y1="142.92" x2="443.25" y2="142.92"/><line class="cls-14" x1="431.88" y1="185.51" x2="444.77" y2="185.51"/><g id="entity-4" data-name="entity"><rect class="cls-1" x="522.55" y="148.82" width="85.71" height="25.21"/><text class="cls-2" transform="translate(549.27 164.63)">tai_<tspan class="cls-5" x="18.56" y="0">x</tspan><tspan x="23.94" y="0">e</tspan></text></g><g id="attribute-20" data-name="attribute"><ellipse class="cls-1" cx="497.27" cy="49.54" rx="39.14" ry="15.7"/><text class="cls-16" transform="translate(480.71 52.24) scale(0.89 1)">cmnnd</text><line class="cls-6" x1="479.13" y1="54.91" x2="509.86" y2="54.91"/></g><g id="attribute-21" data-name="attribute"><ellipse class="cls-1" cx="644.63" cy="88.81" rx="49.58" ry="17.65"/><text class="cls-2" transform="translate(608.66 92.86)">so_dien_thoai</text></g><g id="attribute-22" data-name="attribute"><ellipse class="cls-1" cx="495.68" cy="131.29" rx="40.01" ry="14.32"/><text class="cls-17" transform="translate(486.83 133.72) scale(0.99 1)">t<tspan class="cls-18" x="3.16" y="0">en</tspan></text></g><g id="attribute-23" data-name="attribute"><ellipse class="cls-1" cx="495.68" cy="91.46" rx="40.01" ry="15.63"/><text class="cls-19" transform="translate(473.92 95.04) scale(0.91 1)">dia_chi</text></g><g id="attribute-24" data-name="attribute"><ellipse class="cls-1" cx="644.63" cy="129.96" rx="49.58" ry="17.65"/><text class="cls-2" transform="translate(610.66 134)">luong_thang</text></g><line class="cls-14" x1="579.78" y1="149.03" x2="579.37" y2="47.74"/><line class="cls-14" x1="595.76" y1="131.1" x2="579.81" y2="131.48"/><line class="cls-14" x1="594.79" y1="89.98" x2="581.9" y2="90.29"/><line class="cls-14" x1="592.27" y1="47.44" x2="579.37" y2="47.74"/><line class="cls-14" x1="547.89" y1="48.41" x2="548.04" y2="148.96"/><line class="cls-14" x1="535.69" y1="48.81" x2="547.89" y2="48.41"/><line class="cls-14" x1="547.5" y1="88.99" x2="534.39" y2="89.89"/><line class="cls-14" x1="535.43" y1="132.06" x2="548.33" y2="131.63"/><g id="attribute-25" data-name="attribute"><ellipse class="cls-1" cx="641.12" cy="46.29" rx="49.58" ry="17.65"/><text class="cls-2" transform="translate(607.14 50.33)">t<tspan class="cls-13" x="3.97" y="0">r</tspan><tspan x="7.84" y="0">ang_thai</tspan></text></g><g id="relat"><g id="relationship"><polygon class="cls-14" points="629.33 234.5 574.7 265.12 519.45 235.41 574.1 204.01 629.33 234.5"/><text class="cls-2" transform="translate(557.33 238.43)">Lái <tspan class="cls-20" x="16.8" y="0">x</tspan><tspan x="22.18" y="0">e</tspan></text></g><line class="cls-14" x1="570.29" y1="174.03" x2="574.1" y2="204.01"/><line class="cls-14" x1="486.11" y1="225.16" x2="519.45" y2="235.41"/><text class="cls-2" transform="translate(576.13 194.5)">n</text><text class="cls-2" transform="translate(502.78 226.81)">1</text></g><g id="relat-2" data-name="relat"><g id="relationship-2" data-name="relationship"><polygon class="cls-14" points="374.56 290.75 319.92 321.37 264.68 291.66 319.32 260.26 374.56 290.75"/><text class="cls-2" transform="translate(302.56 294.68)">d<tspan class="cls-8" x="6.77" y="0">a</tspan><tspan x="12.5" y="0">t_</tspan><tspan class="cls-21" x="22.48" y="0">v</tspan><tspan x="28.13" y="0">e</tspan></text></g><line class="cls-14" x1="400.39" y1="234.56" x2="344.34" y2="270.67"/><line class="cls-14" x1="227.7" y1="326.99" x2="287.57" y2="303.97"/><text class="cls-2" transform="translate(363.96 246.32)">n</text><text class="cls-2" transform="translate(234.67 315.48)">n</text><g id="attribute-26" data-name="attribute"><ellipse class="cls-1" cx="221.63" cy="218.56" rx="49.58" ry="17.65"/><text class="cls-2" transform="translate(197.66 221.6)">so_luong</text><g id="attribute-27" data-name="attribute"><ellipse class="cls-1" cx="224.82" cy="174.93" rx="49.58" ry="17.65"/><text class="cls-2" transform="translate(200.85 177.97)">t<tspan class="cls-13" x="3.97" y="0">r</tspan><tspan x="7.84" y="0">ang_thai</tspan></text><g id="attribute-28" data-name="attribute"><ellipse class="cls-1" cx="224.82" cy="129.51" rx="49.58" ry="17.65"/><text class="cls-2" transform="translate(191.85 132.55)">so_dien_thoai</text></g></g></g><g id="attribute-29" data-name="attribute"><ellipse class="cls-1" cx="221.23" cy="260.26" rx="49.58" ry="17.65"/><text class="cls-2" transform="translate(195.25 264.3)"><tspan class="cls-7">t</tspan><tspan x="3.9" y="0">en_</tspan><tspan class="cls-11" x="22.57" y="0">k</tspan><tspan class="cls-12" x="28.4" y="0">hach</tspan></text></g><line class="cls-14" x1="284.61" y1="129.96" x2="284.83" y2="278.28"/><line class="cls-14" x1="272.48" y1="178.13" x2="284.69" y2="177.72"/><line class="cls-14" x1="284.29" y1="218.31" x2="271.18" y2="219.21"/><line class="cls-14" x1="272.22" y1="261.38" x2="285.12" y2="260.95"/><line class="cls-14" x1="273.94" y1="131.49" x2="286.15" y2="131.09"/></g><g id="entity-5" data-name="entity"><rect class="cls-1" x="408.78" y="349.53" width="85.71" height="25.21"/><text class="cls-2" transform="translate(426.5 365.33)">lo_t<tspan class="cls-15" x="19.39" y="0">r</tspan><tspan x="23.36" y="0">inh</tspan></text></g><g id="attribute-30" data-name="attribute"><ellipse class="cls-1" cx="585.33" cy="286.05" rx="49.58" ry="17.65"/><text class="cls-2" transform="translate(551.36 289.09)">ma_lo_t<tspan class="cls-15" x="41.18" y="0">r</tspan><tspan class="cls-12" x="45.16" y="0">inh</tspan></text><line class="cls-6" x1="548.8" y1="292.85" x2="615.54" y2="292.85"/></g><g id="attribute-31" data-name="attribute"><ellipse class="cls-1" cx="587.86" cy="328.42" rx="49.58" ry="17.65"/><text class="cls-2" transform="translate(547.88 331.46)">diem_xu<tspan class="cls-8" x="43.76" y="0">a</tspan><tspan class="cls-4" x="49.5" y="0">t_ph</tspan><tspan class="cls-9" x="72.96" y="0">a</tspan><tspan x="78.7" y="0">t</tspan></text></g><g id="attribute-32" data-name="attribute"><ellipse class="cls-1" cx="579.09" cy="412.11" rx="49.58" ry="17.65"/><text class="cls-2" transform="translate(541.11 415.11)"><tspan class="cls-11">k</tspan><tspan x="5.83" y="0">hoang_cach</tspan></text><g id="attribute-33" data-name="attribute"><ellipse class="cls-1" cx="579.09" cy="455.97" rx="49.58" ry="17.65"/><text class="cls-2" transform="translate(551.11 458.97)">t<tspan class="cls-13" x="3.97" y="0">r</tspan><tspan x="7.84" y="0">ang_thai</tspan></text></g></g><g id="attribute-34" data-name="attribute"><ellipse class="cls-1" cx="586.86" cy="369.26" rx="49.58" ry="17.65"/><text class="cls-2" transform="translate(560.98 373.3)">diem_den</text></g><line class="cls-14" x1="522.88" y1="455.97" x2="521.72" y2="286.42"/><line class="cls-14" x1="536.38" y1="368.91" x2="524.18" y2="369.61"/><line class="cls-14" x1="523.59" y1="329.03" x2="536.67" y2="327.81"/><line class="cls-14" x1="534.59" y1="285.68" x2="521.72" y2="286.42"/><line class="cls-14" x1="522.88" y1="455.97" x2="529.51" y2="455.97"/><line class="cls-14" x1="522.06" y1="412.11" x2="529.51" y2="412.11"/><line class="cls-6" x1="494.49" y1="362.13" x2="522.3" y2="362.13"/><g id="relat-3" data-name="relat"><g id="relationship-3" data-name="relationship"><polygon class="cls-14" points="501.26 296.67 446.63 327.29 391.39 297.58 446.03 266.18 501.26 296.67"/><text class="cls-2" transform="translate(429.27 300.61)">ch<tspan class="cls-22" x="12.04" y="0">ạ</tspan><tspan x="17.72" y="0">y</tspan></text></g><line class="cls-14" x1="442.22" y1="236.21" x2="446.03" y2="266.18"/><line class="cls-14" x1="446.37" y1="326.77" x2="448.44" y2="348.85"/><text class="cls-2" transform="translate(448.06 256.67)">n</text><text class="cls-2" transform="translate(451.64 340.46)">1</text></g><g id="relat-4" data-name="relat"><g id="relationship-4" data-name="relationship"><polygon class="cls-14" points="510.62 419.72 455.98 450.34 400.74 420.63 455.38 389.23 510.62 419.72"/><text class="cls-2" transform="translate(438.62 423.65)">thuộc</text></g><line class="cls-14" x1="453.54" y1="374.74" x2="455.38" y2="389.23"/><line class="cls-14" x1="455.73" y1="449.82" x2="457.01" y2="463.51"/><text class="cls-2" transform="translate(457.41 386.51)">n</text><text class="cls-2" transform="translate(459.99 460.51)">1</text></g></svg>